<svg xmlns="http://www.O3.org/2000/svg" viewBox="0 0 100 100">
  <defs>
    <linearGradient id="grad" x1="0%" y1="0%" x2="100%" y2="100%">
      <stop offset="0%" stop-color="#FF3366" />
      <stop offset="100%" stop-color="#FF9933" />
    </linearGradient>
  </defs>
  <rect width="100" height="100" rx="20" fill="url(#grad)" />
  <path d="M 35 25 C 20 25, 20 40, 25 50 C 15 50, 15 65, 25 70 C 20 80, 30 85, 40 80 L 40 75 C 35 80, 25 75, 30 65 L 35 65 L 35 55 L 25 55 C 20 50, 25 40, 35 40 C 35 30, 45 25, 50 30 C 55 25, 65 30, 65 40 C 75 40, 80 50, 75 55 L 65 55 L 65 65 L 70 65 C 75 75, 65 80, 60 75 L 60 80 C 70 85, 80 80, 75 70 C 85 65, 85 50, 75 50 C 80 40, 80 25, 65 25 C 55 20, 45 20, 35 25 Z
           M 50 30 L 50 80" stroke="white" stroke-width="8" stroke-linecap="round" stroke-linejoin="round" fill="none" />
</svg>
